<?xml version="1.0" encoding="UTF-8" standalone="no"?>
<svg
   xmlns:dc="http://purl.org/dc/elements/1.1/"
   xmlns:cc="http://creativecommons.org/ns#"
   xmlns:rdf="http://www.w3.org/1999/02/22-rdf-syntax-ns#"
   xmlns:svg="http://www.w3.org/2000/svg"
   xmlns="http://www.w3.org/2000/svg"
   xmlns:sodipodi="http://sodipodi.sourceforge.net/DTD/sodipodi-0.dtd"
   xmlns:inkscape="http://www.inkscape.org/namespaces/inkscape"
   width="255.99976"
   height="255.99976"
   viewBox="0 0 67.733268 67.733267"
   version="1.1"
   id="svg5218"
   inkscape:version="1.0.2 (1.0.2+r75+1)"
   sodipodi:docname="github.svg">
  <defs
     id="defs5212">
    <linearGradient
       x1="225.9346"
       y1="114.21665"
       x2="116.48194"
       y2="229.43639"
       id="linearGradient-1"
       gradientTransform="scale(1.1613784,0.86104578)"
       gradientUnits="userSpaceOnUse">
      <stop
         stop-color="#0052CC"
         offset="18%"
         id="stop5838" />
      <stop
         stop-color="#2684FF"
         offset="100%"
         id="stop5840" />
    </linearGradient>
  </defs>
  <sodipodi:namedview
     id="base"
     pagecolor="#ffffff"
     bordercolor="#666666"
     borderopacity="1.0"
     inkscape:pageopacity="0.0"
     inkscape:pageshadow="2"
     inkscape:zoom="0.35"
     inkscape:cx="-780.3418"
     inkscape:cy="167.58997"
     inkscape:document-units="mm"
     inkscape:current-layer="layer1"
     inkscape:document-rotation="0"
     showgrid="false"
     inkscape:window-width="1920"
     inkscape:window-height="1018"
     inkscape:window-x="0"
     inkscape:window-y="34"
     inkscape:window-maximized="1"
     units="px" />
  <metadata
     id="metadata5215">
    <rdf:RDF>
      <cc:Work
         rdf:about="">
        <dc:format>image/svg+xml</dc:format>
        <dc:type
           rdf:resource="http://purl.org/dc/dcmitype/StillImage" />
        <dc:title></dc:title>
      </cc:Work>
    </rdf:RDF>
  </metadata>
  <g
     inkscape:label="Layer 1"
     inkscape:groupmode="layer"
     id="layer1"
     transform="translate(-116.33239,-39.750232)">
    <path
       d="m 150.19934,40.586162 c -18.70175,0 -33.86695,15.1624 -33.86695,33.866952 0,14.963304 9.70391,27.658086 23.16029,32.136246 1.69256,0.3135 2.31395,-0.73468 2.31395,-1.62919 0,-0.80758 -0.0314,-3.47541 -0.046,-6.305322 -9.42182,2.048682 -11.40993,-3.995862 -11.40993,-3.995862 -1.54058,-3.914539 -3.76032,-4.955426 -3.76032,-4.955426 -3.07274,-2.101964 0.23162,-2.058781 0.23162,-2.058781 3.40083,0.238911 5.19154,3.489999 5.19154,3.489999 3.02059,5.177513 7.92273,3.680677 9.85533,2.815328 0.30396,-2.188889 1.18165,-3.68292 2.15019,-4.52864 -7.52231,-0.856376 -15.42991,-3.760316 -15.42991,-16.737187 0,-3.697502 1.32298,-6.718652 3.48944,-9.09037 -0.35163,-0.853011 -1.51085,-4.297587 0.32808,-8.962507 0,0 2.84393,-0.91021 9.31582,3.47149 2.70149,-0.75038 5.5987,-1.12669 8.47684,-1.13959 2.87814,0.0129 5.77759,0.38921 8.48411,1.13959 6.46404,-4.3817 9.30404,-3.47149 9.30404,-3.47149 1.84343,4.66492 0.68364,8.109496 0.33201,8.962507 2.1715,2.371718 3.48551,5.392868 3.48551,9.09037 0,13.007716 -7.92274,15.871839 -15.46412,16.710266 1.21474,1.050983 2.29713,3.112005 2.29713,6.271678 0,4.531447 -0.0393,8.178477 -0.0393,9.293947 0,0.90124 0.60961,1.95727 2.32629,1.62471 13.44909,-4.48322 23.14066,-17.17351 23.14066,-32.131766 0,-18.704552 -15.16295,-33.866952 -33.86637,-33.866952 z m -21.18268,48.244186 c -0.0746,0.168245 -0.33929,0.21872 -0.58045,0.103192 -0.24564,-0.110482 -0.3836,-0.33986 -0.30396,-0.508666 0.0729,-0.173295 0.33817,-0.221525 0.58325,-0.105434 0.2462,0.110482 0.38641,0.342101 0.30116,0.510908 z m 1.66588,1.486439 c -0.16152,0.149741 -0.47726,0.0802 -0.69149,-0.156469 -0.22153,-0.236106 -0.26303,-0.551849 -0.0993,-0.703831 0.16656,-0.149741 0.47277,-0.07964 0.69486,0.156469 0.22152,0.238911 0.2647,0.55241 0.0959,0.703831 z m 1.14286,1.901852 c -0.20751,0.144132 -0.54681,0.009 -0.75655,-0.29219 -0.20751,-0.301162 -0.20751,-0.662332 0.004,-0.807024 0.21031,-0.14469 0.54456,-0.01458 0.75711,0.284337 0.20694,0.30621 0.20694,0.667379 -0.005,0.814877 z m 1.93281,2.202608 c -0.18563,0.204703 -0.58101,0.149741 -0.8704,-0.129548 -0.29611,-0.273121 -0.37855,-0.660648 -0.19236,-0.865348 0.18788,-0.205262 0.5855,-0.147498 0.87713,0.129547 0.29387,0.272561 0.3836,0.662893 0.18563,0.865349 z m 2.49797,0.743577 c -0.0819,0.265269 -0.46268,0.385848 -0.84628,0.273122 -0.38304,-0.116091 -0.63373,-0.426786 -0.55634,-0.694859 0.0796,-0.266952 0.46212,-0.392576 0.84853,-0.272 0.38248,0.11553 0.63373,0.423982 0.55409,0.693737 z m 2.8428,0.315408 c 0.01,0.279288 -0.31574,0.510907 -0.71842,0.515956 -0.40491,0.009 -0.73243,-0.217038 -0.73692,-0.491842 0,-0.282094 0.31799,-0.511469 0.7229,-0.5182 0.40267,-0.0079 0.73244,0.216477 0.73244,0.494086 z m 2.79273,-0.107053 c 0.0482,0.27256 -0.23162,0.55241 -0.63149,0.626999 -0.39313,0.07179 -0.75711,-0.09646 -0.80702,-0.366776 -0.0488,-0.279289 0.23611,-0.559142 0.62868,-0.631487 0.40043,-0.06954 0.75879,0.09422 0.80983,0.371264 z"
       fill="#161614"
       id="path5935"
       style="fill:#ffffff;stroke-width:0.264583" />
  </g>
</svg>
