<?xml version="1.0" encoding="UTF-8" standalone="no"?>
<svg
   xmlns:dc="http://purl.org/dc/elements/1.1/"
   xmlns:cc="http://creativecommons.org/ns#"
   xmlns:rdf="http://www.w3.org/1999/02/22-rdf-syntax-ns#"
   xmlns:svg="http://www.w3.org/2000/svg"
   xmlns="http://www.w3.org/2000/svg"
   xmlns:sodipodi="http://sodipodi.sourceforge.net/DTD/sodipodi-0.dtd"
   xmlns:inkscape="http://www.inkscape.org/namespaces/inkscape"
   fill="none"
   height="200"
   viewBox="1.372 -0.18543865 25.96424 26.107014"
   width="200"
   version="1.1"
   id="svg12"
   sodipodi:docname="prisma.svg"
   inkscape:version="1.0.2 (1.0.2+r75+1)">
  <metadata
     id="metadata18">
    <rdf:RDF>
      <cc:Work
         rdf:about="">
        <dc:format>image/svg+xml</dc:format>
        <dc:type
           rdf:resource="http://purl.org/dc/dcmitype/StillImage" />
        <dc:title></dc:title>
      </cc:Work>
    </rdf:RDF>
  </metadata>
  <defs
     id="defs16" />
  <sodipodi:namedview
     pagecolor="#ffffff"
     bordercolor="#666666"
     borderopacity="1"
     objecttolerance="10"
     gridtolerance="10"
     guidetolerance="10"
     inkscape:pageopacity="0"
     inkscape:pageshadow="2"
     inkscape:window-width="1920"
     inkscape:window-height="1018"
     id="namedview14"
     showgrid="false"
     inkscape:zoom="0.38749452"
     inkscape:cx="187.67629"
     inkscape:cy="286.91685"
     inkscape:window-x="0"
     inkscape:window-y="34"
     inkscape:window-maximized="1"
     inkscape:current-layer="svg12" />
  <rect
     style="fill:#1c77aa;fill-opacity:1;stroke:none;stroke-width:0.024668;stroke-linecap:round"
     id="rect894"
     width="26.107014"
     height="26.107014"
     x="1.300613"
     y="-0.18543865"
     ry="4.6476865" />
  <path
     clip-rule="evenodd"
     d="m 20.402727,18.215557 -8.19019,2.422331 c -0.25022,0.0741 -0.49002,-0.142346 -0.43745,-0.394695 l 2.92589,-14.0124797 c 0.0547,-0.261896 0.41693,-0.303503 0.53121,-0.06081 l 5.41748,11.5040807 c 0.10216,0.217011 -0.0144,0.472923 -0.24694,0.541604 z m 1.40453,-0.571383 -6.2727,-13.3202647 v -2.86e-4 c -0.15879,-0.334175 -0.48815,-0.554254 -0.85766,-0.573091 -0.38173,-0.02225 -0.7237,0.161867 -0.91664,0.475203 L 6.9572171,15.244494 c -0.211,0.339803 -0.20633,0.770993 0.012,1.106151 l 3.3254399,5.151305 c 0.1982,0.307492 0.5416,0.485462 0.89854,0.485462 0.10116,0 0.2029,-0.01423 0.30293,-0.04387 l 9.65285,-2.854931 c 0.29401,-0.08614 0.53622,-0.295511 0.66401,-0.573949 0.12618,-0.276932 0.12409,-0.595359 -0.006,-0.870617 z"
     fill-rule="evenodd"
     id="path8"
     style="fill:#f9f9f9;stroke-width:0.999999"
     sodipodi:nodetypes="cccccccccccccccsccccc" />
  <g
     id="g888"
     transform="matrix(0.17402977,0,0,0.17402977,-45.700305,-73.192568)">
    <path
       d="M 478.5,0.6 C 476.3,0.8 469.3,1.5 463,2 317.7,15.1 181.6,93.5 95.4,214 47.4,281 16.7,357 5.1,437.5 1,465.6 0.5,473.9 0.5,512 0.5,550.1 1,558.4 5.1,586.5 32.9,778.6 169.6,940 355,999.8 c 33.2,10.7 68.2,18 108,22.4 15.5,1.7 82.5,1.7 98,0 68.7,-7.6 126.9,-24.6 184.3,-53.9 8.8,-4.5 10.5,-5.7 9.3,-6.7 -0.8,-0.6 -38.3,-50.9 -83.3,-111.7 L 589.5,739.4 487,587.7 C 430.6,504.3 384.2,436.1 383.8,436.1 c -0.4,-0.1 -0.8,67.3 -1,149.6 -0.3,144.1 -0.4,149.9 -2.2,153.3 -2.6,4.9 -4.6,6.9 -8.8,9.1 -3.2,1.6 -6,1.9 -21.1,1.9 h -17.3 l -4.6,-2.9 c -3,-1.9 -5.2,-4.4 -6.7,-7.3 l -2.1,-4.5 0.2,-200.5 0.3,-200.6 3.1,-3.9 c 1.6,-2.1 5,-4.8 7.4,-6.1 4.1,-2 5.7,-2.2 23,-2.2 20.4,0 23.8,0.8 29.1,6.6 1.5,1.6 57,85.2 123.4,185.9 66.4,100.7 157.2,238.2 201.8,305.7 l 81,122.7 4.1,-2.7 c 36.3,-23.6 74.7,-57.2 105.1,-92.2 64.7,-74.3 106.4,-164.9 120.4,-261.5 4.1,-28.1 4.6,-36.4 4.6,-74.5 0,-38.1 -0.5,-46.4 -4.6,-74.5 C 991.1,245.4 854.4,84 669,24.2 636.3,13.6 601.5,6.3 562.5,1.9 c -9.6,-1 -75.7,-2.1 -84,-1.3 z M 687.9,310 c 4.8,2.4 8.7,7 10.1,11.8 0.8,2.6 1,58.2 0.8,183.5 L 698.5,685.1 666.8,636.5 635,587.9 V 457.2 c 0,-84.5 0.4,-132 1,-134.3 1.6,-5.6 5.1,-10 9.9,-12.6 4.1,-2.1 5.6,-2.3 21.3,-2.3 14.8,0 17.4,0.2 20.7,2 z"
       id="path874" />
    <path
       d="m 784.3,945.1 c -3.5,2.2 -4.6,3.7 -1.5,2 2.2,-1.3 5.8,-4 5.2,-4.1 -0.3,0 -2,1 -3.7,2.1 z m -6.9,4.5 c -1.8,1.4 -1.8,1.5 0.4,0.4 1.2,-0.6 2.2,-1.3 2.2,-1.5 0,-0.8 -0.5,-0.6 -2.6,1.1 z m -5,3 c -1.8,1.4 -1.8,1.5 0.4,0.4 1.2,-0.6 2.2,-1.3 2.2,-1.5 0,-0.8 -0.5,-0.6 -2.6,1.1 z m -5,3 c -1.8,1.4 -1.8,1.5 0.4,0.4 1.2,-0.6 2.2,-1.3 2.2,-1.5 0,-0.8 -0.5,-0.6 -2.6,1.1 z m -7.6,4 c -3.8,2 -3.6,2.8 0.2,0.9 1.7,-0.9 3,-1.8 3,-2 0,-0.7 -0.1,-0.6 -3.2,1.1 z"
       id="path876" />
  </g>
</svg>
