<?xml version="1.0" encoding="UTF-8" standalone="no"?>
<svg
   xmlns:dc="http://purl.org/dc/elements/1.1/"
   xmlns:cc="http://creativecommons.org/ns#"
   xmlns:rdf="http://www.w3.org/1999/02/22-rdf-syntax-ns#"
   xmlns:svg="http://www.w3.org/2000/svg"
   xmlns="http://www.w3.org/2000/svg"
   xmlns:sodipodi="http://sodipodi.sourceforge.net/DTD/sodipodi-0.dtd"
   xmlns:inkscape="http://www.inkscape.org/namespaces/inkscape"
   version="1.1"
   id="svg2"
   xml:space="preserve"
   width="118.87188"
   height="120.18431"
   viewBox="0 0 118.87188 120.18431"
   sodipodi:docname="python.svg"
   inkscape:version="1.0.2 (1.0.2+r75+1)"><metadata
     id="metadata8"><rdf:RDF><cc:Work
         rdf:about=""><dc:format>image/svg+xml</dc:format><dc:type
           rdf:resource="http://purl.org/dc/dcmitype/StillImage" /><dc:title /></cc:Work></rdf:RDF></metadata><defs
     id="defs6"><clipPath
       clipPathUnits="userSpaceOnUse"
       id="clipPath32"><path
         d="m 730.082,1396.52 c 22.215,0 40.352,-18.44 40.352,-41.11 0,-22.58 -18.137,-40.85 -40.352,-40.85 -22.293,0 -40.352,18.27 -40.352,40.85 0,22.67 18.059,41.11 40.352,41.11 z m 116.297,65.91 c -36.766,-0.17 -71.871,-3.3 -102.766,-8.77 -90.996,-16.08 -107.519,-49.73 -107.519,-111.78 v -81.96 H 851.137 V 1232.6 H 636.094 555.391 c -62.496,0 -117.223,-37.56 -134.336,-109.02 -19.746,-81.91 -20.625,-133.025 0,-218.557 C 436.34,841.359 472.844,796 535.344,796 h 73.933 v 98.254 c 0,70.976 61.411,133.586 134.336,133.586 h 214.793 c 59.794,0 107.524,49.23 107.524,109.27 v 204.77 c 0,58.27 -49.16,102.05 -107.524,111.78 -36.941,6.15 -75.269,8.95 -112.027,8.77 z"
         id="path30" /></clipPath><linearGradient
       x1="0"
       y1="0"
       x2="1"
       y2="0"
       gradientUnits="userSpaceOnUse"
       gradientTransform="matrix(491.844,-427.251,423.165,496.592,384.048,1436.78)"
       spreadMethod="pad"
       id="linearGradient38"><stop
         style="stop-opacity:1;stop-color:#659fd8"
         offset="0"
         id="stop34" /><stop
         style="stop-opacity:1;stop-color:#38669e"
         offset="1"
         id="stop36" /></linearGradient><clipPath
       clipPathUnits="userSpaceOnUse"
       id="clipPath48"><path
         d="m 971.941,714.051 c 22.293,0 40.349,-18.262 40.349,-40.852 0,-22.668 -18.056,-41.109 -40.349,-41.109 -22.211,0 -40.347,18.441 -40.347,41.109 0,22.59 18.136,40.852 40.347,40.852 z M 1092.74,1232.6 v -95.49 c 0,-74.04 -62.76,-136.34 -134.334,-136.34 H 743.613 c -58.832,0 -107.519,-50.356 -107.519,-109.282 V 686.719 c 0,-58.27 50.676,-92.559 107.519,-109.258 68.071,-20.02 133.344,-23.652 214.793,0 54.134,15.66 107.524,47.211 107.524,109.258 v 81.972 H 851.137 V 796 h 214.793 107.52 c 62.5,0 85.79,43.59 107.52,109.023 22.45,67.364 21.5,132.147 0,218.557 -15.44,62.21 -44.94,109.02 -107.52,109.02 z"
         id="path46" /></clipPath><linearGradient
       x1="0"
       y1="0"
       x2="1"
       y2="0"
       gradientUnits="userSpaceOnUse"
       gradientTransform="matrix(-175.64,250.9,-248.501,-177.336,1066.04,750.92)"
       spreadMethod="pad"
       id="linearGradient54"><stop
         style="stop-opacity:1;stop-color:#fad325"
         offset="0"
         id="stop50" /><stop
         style="stop-opacity:1;stop-color:#faea55"
         offset="1"
         id="stop52" /></linearGradient><clipPath
       clipPathUnits="userSpaceOnUse"
       id="clipPath66"><path
         d="m 853.559,382.41 c -159.118,0 -288.18,25.02 -288.18,55.801 0,30.871 129.062,55.891 288.18,55.891 159.211,0 288.181,-25.02 288.181,-55.891 0,-30.781 -128.97,-55.801 -288.181,-55.801"
         id="path64" /></clipPath><radialGradient
       fx="0"
       fy="0"
       cx="0"
       cy="0"
       r="1"
       gradientUnits="userSpaceOnUse"
       gradientTransform="matrix(4.1e-6,55.8768,-245.602,8.83e-5,853.564,438.27)"
       spreadMethod="pad"
       id="radialGradient72"><stop
         style="stop-opacity:1;stop-color:#e2e2e0"
         offset="0"
         id="stop68" /><stop
         style="stop-opacity:1;stop-color:#c6c5c3"
         offset="1"
         id="stop70" /></radialGradient></defs><sodipodi:namedview
     pagecolor="#ffffff"
     bordercolor="#666666"
     borderopacity="1"
     objecttolerance="10"
     gridtolerance="10"
     guidetolerance="10"
     inkscape:pageopacity="0"
     inkscape:pageshadow="2"
     inkscape:window-width="1920"
     inkscape:window-height="1018"
     id="namedview4"
     showgrid="false"
     inkscape:zoom="1.5593206"
     inkscape:cx="210.93607"
     inkscape:cy="103.36034"
     inkscape:window-x="0"
     inkscape:window-y="34"
     inkscape:window-maximized="1"
     inkscape:current-layer="g10"
     inkscape:document-rotation="0" /><g
     id="g10"
     inkscape:groupmode="layer"
     inkscape:label="ink_ext_XXXXXX"
     transform="matrix(1.3333333,0,0,-1.3333333,-54.121876,194.99175)"><g
       id="g26"
       transform="scale(0.1)"><g
         id="g28"
         clip-path="url(#clipPath32)"><path
           d="m 730.082,1396.52 c 22.215,0 40.352,-18.44 40.352,-41.11 0,-22.58 -18.137,-40.85 -40.352,-40.85 -22.293,0 -40.352,18.27 -40.352,40.85 0,22.67 18.059,41.11 40.352,41.11 z m 116.297,65.91 c -36.766,-0.17 -71.871,-3.3 -102.766,-8.77 -90.996,-16.08 -107.519,-49.73 -107.519,-111.78 v -81.96 H 851.137 V 1232.6 H 636.094 555.391 c -62.496,0 -117.223,-37.56 -134.336,-109.02 -19.746,-81.91 -20.625,-133.025 0,-218.557 C 436.34,841.359 472.844,796 535.344,796 h 73.933 v 98.254 c 0,70.976 61.411,133.586 134.336,133.586 h 214.793 c 59.794,0 107.524,49.23 107.524,109.27 v 204.77 c 0,58.27 -49.16,102.05 -107.524,111.78 -36.941,6.15 -75.269,8.95 -112.027,8.77"
           style="fill:url(#linearGradient38);fill-opacity:1;fill-rule:nonzero;stroke:none"
           id="path40" /></g></g><g
       id="g42"
       transform="scale(0.1)"><g
         id="g44"
         clip-path="url(#clipPath48)"><path
           d="m 971.941,714.051 c 22.293,0 40.349,-18.262 40.349,-40.852 0,-22.668 -18.056,-41.109 -40.349,-41.109 -22.211,0 -40.347,18.441 -40.347,41.109 0,22.59 18.136,40.852 40.347,40.852 z M 1092.74,1232.6 v -95.49 c 0,-74.04 -62.76,-136.34 -134.334,-136.34 H 743.613 c -58.832,0 -107.519,-50.356 -107.519,-109.282 V 686.719 c 0,-58.27 50.676,-92.559 107.519,-109.258 68.071,-20.02 133.344,-23.652 214.793,0 54.134,15.66 107.524,47.211 107.524,109.258 v 81.972 H 851.137 V 796 h 214.793 107.52 c 62.5,0 85.79,43.59 107.52,109.023 22.45,67.364 21.5,132.147 0,218.557 -15.44,62.21 -44.94,109.02 -107.52,109.02 h -80.71"
           style="fill:url(#linearGradient54);fill-opacity:1;fill-rule:nonzero;stroke:none"
           id="path56" /></g></g></g></svg>
