<?xml version="1.0" encoding="UTF-8" standalone="no"?>
<svg
   xmlns:dc="http://purl.org/dc/elements/1.1/"
   xmlns:cc="http://creativecommons.org/ns#"
   xmlns:rdf="http://www.w3.org/1999/02/22-rdf-syntax-ns#"
   xmlns:svg="http://www.w3.org/2000/svg"
   xmlns="http://www.w3.org/2000/svg"
   xmlns:sodipodi="http://sodipodi.sourceforge.net/DTD/sodipodi-0.dtd"
   xmlns:inkscape="http://www.inkscape.org/namespaces/inkscape"
   fill="none"
   viewBox="0 0 200 200"
   version="1.1"
   id="svg11"
   sodipodi:docname="tailwind.svg"
   width="200"
   height="200"
   inkscape:version="1.0.2 (1.0.2+r75+1)">
  <metadata
     id="metadata15">
    <rdf:RDF>
      <cc:Work
         rdf:about="">
        <dc:format>image/svg+xml</dc:format>
        <dc:type
           rdf:resource="http://purl.org/dc/dcmitype/StillImage" />
        <dc:title></dc:title>
      </cc:Work>
    </rdf:RDF>
  </metadata>
  <sodipodi:namedview
     pagecolor="#ffffff"
     bordercolor="#666666"
     borderopacity="1"
     objecttolerance="10"
     gridtolerance="10"
     guidetolerance="10"
     inkscape:pageopacity="0"
     inkscape:pageshadow="2"
     inkscape:window-width="1920"
     inkscape:window-height="1018"
     id="namedview13"
     showgrid="false"
     inkscape:zoom="2.2424451"
     inkscape:cx="-20.291701"
     inkscape:cy="125.6251"
     inkscape:window-x="0"
     inkscape:window-y="34"
     inkscape:window-maximized="1"
     inkscape:current-layer="svg11" />
  <rect
     style="fill:#f9f9f9;fill-opacity:1;stroke:none;stroke-width:0.188976;stroke-linecap:round"
     id="rect894"
     width="200"
     height="200"
     x="0"
     y="0"
     ry="35.604889" />
  <g
     clip-path="url(#prefix__clip0)"
     id="g4"
     transform="matrix(3.3358358,0,0,3.3358358,9.932434,45.959461)"
     style="stroke-width:0.299776">
    <path
       fill="#38bdf8"
       fill-rule="evenodd"
       d="M 27,0 C 19.8,0 15.3,3.6 13.5,10.8 16.2,7.2 19.35,5.85 22.95,6.75 25.004,7.263 26.472,8.754 28.097,10.403 30.744,13.09 33.808,16.2 40.5,16.2 47.7,16.2 52.2,12.6 54,5.4 51.3,9 48.15,10.35 44.55,9.45 42.496,8.937 41.028,7.446 39.403,5.797 36.756,3.11 33.692,0 27,0 Z M 13.5,16.2 C 6.3,16.2 1.8,19.8 0,27 c 2.7,-3.6 5.85,-4.95 9.45,-4.05 2.054,0.514 3.522,2.004 5.147,3.653 2.647,2.687 5.711,5.797 12.403,5.797 7.2,0 11.7,-3.6 13.5,-10.8 -2.7,3.6 -5.85,4.95 -9.45,4.05 C 28.996,25.137 27.528,23.646 25.903,21.997 23.256,19.31 20.192,16.2 13.5,16.2 Z"
       clip-rule="evenodd"
       id="path2"
       style="stroke-width:0.060943" />
  </g>
  <defs
     id="defs9">
    <clipPath
       id="prefix__clip0">
      <path
         fill="#ffffff"
         d="M 0,0 H 54 V 32.4 H 0 Z"
         id="path6" />
    </clipPath>
  </defs>
</svg>
