<?xml version="1.0" encoding="UTF-8" standalone="no"?>
<svg
   xmlns:dc="http://purl.org/dc/elements/1.1/"
   xmlns:cc="http://creativecommons.org/ns#"
   xmlns:rdf="http://www.w3.org/1999/02/22-rdf-syntax-ns#"
   xmlns:svg="http://www.w3.org/2000/svg"
   xmlns="http://www.w3.org/2000/svg"
   width="26.142567mm"
   height="8.0873623mm"
   viewBox="0 0 26.142567 8.0873623"
   version="1.1"
   id="svg855">
  <defs
     id="defs849" />
  <metadata
     id="metadata852">
    <rdf:RDF>
      <cc:Work
         rdf:about="">
        <dc:format>image/svg+xml</dc:format>
        <dc:type
           rdf:resource="http://purl.org/dc/dcmitype/StillImage" />
        <dc:title></dc:title>
      </cc:Work>
    </rdf:RDF>
  </metadata>
  <g
     id="layer1"
     transform="translate(103.35932,-65.200453)">
    <g
       id="g1495">
      <g
         aria-label="clAssr"
         id="text1449"
         style="font-size:8.46667px;line-height:1.25;font-family:Monofur;-inkscape-font-specification:Monofur;letter-spacing:0px;word-spacing:0px;stroke-width:0.264583">
        <path
           d="m -101.04792,72.771848 q -0.6604,0 -1.18533,-0.3048 -0.52494,-0.313266 -0.82974,-0.846667 -0.29633,-0.541867 -0.29633,-1.202267 0,-0.677333 0.28787,-1.210734 0.28786,-0.541867 0.79586,-0.846667 0.508,-0.3048 1.143,-0.3048 1.05834,0 1.718739,0.812801 0.06773,0.0762 0.06773,0.1778 0,0.135466 -0.143934,0.237066 -0.0762,0.0508 -0.160866,0.0508 -0.127,0 -0.245534,-0.127 -0.253995,-0.2794 -0.558795,-0.414866 -0.3048,-0.143934 -0.67734,-0.143934 -0.46566,0 -0.82973,0.2286 -0.36407,0.220134 -0.56727,0.626534 -0.19473,0.4064 -0.19473,0.9144 0,0.499534 0.21167,0.905934 0.21166,0.397933 0.59266,0.626533 0.381,0.228601 0.87207,0.228601 0.67733,0 1.092199,-0.364067 0.110066,-0.09313 0.2286,-0.09313 0.1016,0 0.186266,0.06773 0.118534,0.1016 0.118534,0.2286 0,0.110067 -0.08467,0.186267 -0.609599,0.567266 -1.540929,0.567266 z"
           style="font-style:normal;font-variant:normal;font-weight:normal;font-stretch:normal;font-family:Comfortaa;-inkscape-font-specification:Comfortaa;stroke-width:0.264583"
           id="path1451" />
        <path
           d="m -97.071096,72.729515 q -0.516467,0 -0.846667,-0.4064 -0.321734,-0.414867 -0.321734,-1.058334 v -4.826002 q 0,-0.143933 0.09313,-0.2286 0.09313,-0.09313 0.2286,-0.09313 0.143933,0 0.2286,0.09313 0.09313,0.08467 0.09313,0.2286 v 4.826002 q 0,0.364067 0.143934,0.592667 0.1524,0.2286 0.381,0.2286 h 0.211666 q 0.127001,0 0.203201,0.09313 0.0762,0.08467 0.0762,0.2286 0,0.143933 -0.110067,0.237066 -0.1016,0.08467 -0.270934,0.08467 z"
           style="font-style:normal;font-variant:normal;font-weight:normal;font-stretch:normal;font-family:Comfortaa;-inkscape-font-specification:Comfortaa;stroke-width:0.264583"
           id="path1453" />
        <path
           id="path1455"
           style="font-style:normal;font-variant:normal;font-weight:normal;font-stretch:normal;font-family:Comfortaa;-inkscape-font-specification:Comfortaa;fill:#b91c1c;stroke:none;stroke-width:0.999999"
           d="m -351.21094,249.89062 c -0.57601,0 -0.98214,0.28924 -1.21679,0.86524 l -9.40625,22.33594 c -0.064,0.14932 -0.0977,0.32962 -0.0977,0.54297 0,0.34133 0.10697,0.64048 0.32031,0.89648 0.23467,0.23466 0.53382,0.35156 0.89649,0.35156 0.59734,0 0.98168,-0.25558 1.15234,-0.76758 2.7842,-6.71991 5.56781,-13.44006 8.35156,-20.16015 2.7784,6.71801 5.5521,13.43795 8.32032,20.16015 0.23466,0.512 0.62892,0.76758 1.18359,0.76758 0.34134,0 0.62862,-0.1169 0.86328,-0.35156 0.256,-0.256 0.38477,-0.55515 0.38477,-0.89648 0,-0.192 -0.0416,-0.36238 -0.12696,-0.51172 l -9.4414,-22.36719 c -0.21334,-0.576 -0.60759,-0.86524 -1.1836,-0.86524 z"
           transform="scale(0.26458333)" />
        <path
           d="m -87.589484,72.771848 q -0.524934,0 -1.007534,-0.1778 -0.4826,-0.1778 -0.778933,-0.499533 -0.08467,-0.1016 -0.08467,-0.194734 0,-0.143933 0.135467,-0.254 0.1016,-0.0762 0.211666,-0.0762 0.143934,0 0.245534,0.118534 0.2032,0.237066 0.5334,0.364066 0.338667,0.127001 0.745067,0.127001 0.592667,0 0.889,-0.203201 0.296334,-0.2032 0.3048,-0.5334 0,-0.3048 -0.296333,-0.508 -0.296334,-0.2032 -0.9398,-0.3048 -0.829734,-0.135467 -1.244601,-0.465667 -0.4064,-0.338667 -0.4064,-0.8128 0,-0.618067 0.474133,-0.956734 0.482601,-0.338667 1.202268,-0.338667 0.5588,0 0.973667,0.194734 0.414866,0.186266 0.668867,0.524933 0.06773,0.110067 0.06773,0.194734 0,0.143933 -0.135467,0.2286 -0.05927,0.04233 -0.160867,0.04233 -0.1778,0 -0.296333,-0.127 -0.414867,-0.474134 -1.134534,-0.474134 -0.465667,0 -0.745067,0.194734 -0.2794,0.186267 -0.2794,0.474133 0,0.304801 0.262467,0.491067 0.262467,0.1778 0.931334,0.287867 0.905933,0.1524 1.2954,0.499534 0.389467,0.338666 0.389467,0.846667 0,0.389466 -0.237067,0.694267 -0.2286,0.3048 -0.643467,0.474133 -0.414867,0.169333 -0.9398,0.169333 z"
           style="font-style:normal;font-variant:normal;font-weight:normal;font-stretch:normal;font-family:Comfortaa;-inkscape-font-specification:Comfortaa;stroke-width:0.264583"
           id="path1457" />
        <path
           d="m -83.02542,72.771848 q -0.524934,0 -1.007534,-0.1778 -0.4826,-0.1778 -0.778933,-0.499533 -0.08467,-0.1016 -0.08467,-0.194734 0,-0.143933 0.135467,-0.254 0.1016,-0.0762 0.211666,-0.0762 0.143934,0 0.245534,0.118534 0.2032,0.237066 0.5334,0.364066 0.338667,0.127001 0.745067,0.127001 0.592667,0 0.889,-0.203201 0.296334,-0.2032 0.3048,-0.5334 0,-0.3048 -0.296333,-0.508 -0.296334,-0.2032 -0.9398,-0.3048 -0.829734,-0.135467 -1.244601,-0.465667 -0.4064,-0.338667 -0.4064,-0.8128 0,-0.618067 0.474133,-0.956734 0.482601,-0.338667 1.202268,-0.338667 0.5588,0 0.973667,0.194734 0.414866,0.186266 0.668867,0.524933 0.06773,0.110067 0.06773,0.194734 0,0.143933 -0.135467,0.2286 -0.05927,0.04233 -0.160867,0.04233 -0.1778,0 -0.296333,-0.127 -0.414867,-0.474134 -1.134534,-0.474134 -0.465667,0 -0.745067,0.194734 -0.2794,0.186267 -0.2794,0.474133 0,0.304801 0.262467,0.491067 0.262467,0.1778 0.931334,0.287867 0.905933,0.1524 1.2954,0.499534 0.389467,0.338666 0.389467,0.846667 0,0.389466 -0.237067,0.694267 -0.2286,0.3048 -0.643467,0.474133 -0.414867,0.169333 -0.9398,0.169333 z"
           style="font-style:normal;font-variant:normal;font-weight:normal;font-stretch:normal;font-family:Comfortaa;-inkscape-font-specification:Comfortaa;stroke-width:0.264583"
           id="path1459" />
        <path
           d="m -77.987221,68.047447 q 0.355601,0 0.558801,0.09313 0.211666,0.09313 0.211666,0.262467 0,0.0508 -0.0085,0.0762 -0.03387,0.118533 -0.110067,0.160866 -0.06773,0.04233 -0.194733,0.04233 -0.0762,0 -0.262467,-0.01693 -0.06773,-0.0085 -0.2032,-0.0085 -0.635001,0 -1.041401,0.338667 -0.397933,0.338666 -0.397933,0.880533 v 2.531535 q 0,0.1524 -0.08467,0.237066 -0.08467,0.08467 -0.237067,0.08467 -0.1524,0 -0.237066,-0.08467 -0.08467,-0.08467 -0.08467,-0.237066 V 68.41998 q 0,-0.1524 0.08467,-0.237067 0.08467,-0.08467 0.237066,-0.08467 0.1524,0 0.237067,0.08467 0.08467,0.08467 0.08467,0.237067 v 0.372534 q 0.245533,-0.355601 0.626533,-0.550334 0.381001,-0.194733 0.821267,-0.194733 z"
           style="font-style:normal;font-variant:normal;font-weight:normal;font-stretch:normal;font-family:Comfortaa;-inkscape-font-specification:Comfortaa;stroke-width:0.264583"
           id="path1461" />
        <path
           style="fill:#dc2626;stroke:none;stroke-width:1;stroke-linecap:round;stroke-dasharray:0.79375, 0.79375"
           id="path1473"
           d="m -92.920433,67.03354 -0.79375,-0.458271 0,-0.916544 0.79375,-0.458272 0.79375,0.458272 0,0.916544 z" />
        <path
           style="fill:#dc2626;stroke:none;stroke-width:1.33173;stroke-linecap:round;stroke-dasharray:1.05706, 1.05706"
           id="path1481"
           d="m -89.913171,74.324203 -1.5875,0.916544 V 73.40766 Z"
           transform="matrix(0.2934012,0.69120991,-0.69120991,0.2934012,-12.273438,113.62988)" />
        <path
           style="fill:#dc2626;stroke:none;stroke-width:1.33173;stroke-linecap:round;stroke-dasharray:1.05706, 1.05706"
           id="path1483"
           d="m -89.913171,74.324203 -1.5875,0.916544 V 73.40766 Z"
           transform="matrix(-0.2934012,0.69120991,0.69120991,0.2934012,-173.57456,113.62988)" />
      </g>
    </g>
  </g>
</svg>
