<?xml version="1.0" encoding="UTF-8" standalone="no"?>
<svg
   xmlns:dc="http://purl.org/dc/elements/1.1/"
   xmlns:cc="http://creativecommons.org/ns#"
   xmlns:rdf="http://www.w3.org/1999/02/22-rdf-syntax-ns#"
   xmlns:svg="http://www.w3.org/2000/svg"
   xmlns="http://www.w3.org/2000/svg"
   width="26.142567mm"
   height="8.0873623mm"
   viewBox="0 0 26.142567 8.0873623"
   version="1.1"
   id="svg855">
  <defs
     id="defs849" />
  <metadata
     id="metadata852">
    <rdf:RDF>
      <cc:Work
         rdf:about="">
        <dc:format>image/svg+xml</dc:format>
        <dc:type
           rdf:resource="http://purl.org/dc/dcmitype/StillImage" />
        <dc:title></dc:title>
      </cc:Work>
    </rdf:RDF>
  </metadata>
  <g
     id="layer1"
     transform="translate(103.35932,-65.200453)">
    <path
       d="m -101.04792,72.771848 q -0.6604,0 -1.18533,-0.3048 -0.52494,-0.313266 -0.82974,-0.846667 -0.29633,-0.541867 -0.29633,-1.202267 0,-0.677333 0.28787,-1.210734 0.28786,-0.541867 0.79586,-0.846667 0.508,-0.3048 1.143,-0.3048 1.05834,0 1.718739,0.812801 0.06773,0.0762 0.06773,0.1778 0,0.135466 -0.143934,0.237066 -0.0762,0.0508 -0.160866,0.0508 -0.127,0 -0.245534,-0.127 -0.253995,-0.2794 -0.558795,-0.414866 -0.3048,-0.143934 -0.67734,-0.143934 -0.46566,0 -0.82973,0.2286 -0.36407,0.220134 -0.56727,0.626534 -0.19473,0.4064 -0.19473,0.9144 0,0.499534 0.21167,0.905934 0.21166,0.397933 0.59266,0.626533 0.381,0.228601 0.87207,0.228601 0.67733,0 1.092199,-0.364067 0.110066,-0.09313 0.2286,-0.09313 0.1016,0 0.186266,0.06773 0.118534,0.1016 0.118534,0.2286 0,0.110067 -0.08467,0.186267 -0.609599,0.567266 -1.540929,0.567266 z"
       style="font-style:normal;font-variant:normal;font-weight:normal;font-stretch:normal;font-size:8.46667px;line-height:1.25;font-family:Comfortaa;-inkscape-font-specification:Comfortaa;letter-spacing:0px;word-spacing:0px;stroke-width:0.264583;fill:#ffffff"
       id="path1451" />
    <path
       d="m -97.071096,72.729515 q -0.516467,0 -0.846667,-0.4064 -0.321734,-0.414867 -0.321734,-1.058334 v -4.826002 q 0,-0.143933 0.09313,-0.2286 0.09313,-0.09313 0.2286,-0.09313 0.143933,0 0.2286,0.09313 0.09313,0.08467 0.09313,0.2286 v 4.826002 q 0,0.364067 0.143934,0.592667 0.1524,0.2286 0.381,0.2286 h 0.211666 q 0.127001,0 0.203201,0.09313 0.0762,0.08467 0.0762,0.2286 0,0.143933 -0.110067,0.237066 -0.1016,0.08467 -0.270934,0.08467 z"
       style="font-style:normal;font-variant:normal;font-weight:normal;font-stretch:normal;font-size:8.46667px;line-height:1.25;font-family:Comfortaa;-inkscape-font-specification:Comfortaa;letter-spacing:0px;word-spacing:0px;stroke-width:0.264583;fill:#ffffff"
       id="path1453" />
    <path
       id="path1455"
       style="font-style:normal;font-variant:normal;font-weight:normal;font-stretch:normal;font-size:8.46667px;line-height:1.25;font-family:Comfortaa;-inkscape-font-specification:Comfortaa;letter-spacing:0px;word-spacing:0px;fill:#b91c1c;stroke:none;stroke-width:0.264583"
       d="m -92.92456,66.116892 c -0.152403,0 -0.259858,0.07653 -0.321942,0.228928 l -2.488737,5.909718 c -0.01693,0.03951 -0.02585,0.08721 -0.02585,0.143661 0,0.09031 0.0283,0.16946 0.08475,0.237193 0.06209,0.06209 0.141239,0.09302 0.237196,0.09302 0.158046,0 0.259736,-0.06762 0.30489,-0.203089 0.736653,-1.777976 1.47315,-3.556015 2.209683,-5.334039 0.735119,1.777473 1.468993,3.555457 2.201418,5.334039 0.06209,0.135467 0.166402,0.203089 0.313159,0.203089 0.09031,0 0.166322,-0.03093 0.228409,-0.09302 0.06773,-0.06773 0.101804,-0.146883 0.101804,-0.237193 0,-0.0508 -0.01101,-0.09588 -0.03359,-0.135393 l -2.49804,-5.917986 c -0.05645,-0.1524 -0.160758,-0.228928 -0.313161,-0.228928 z" />
    <path
       d="m -87.589484,72.771848 q -0.524934,0 -1.007534,-0.1778 -0.4826,-0.1778 -0.778933,-0.499533 -0.08467,-0.1016 -0.08467,-0.194734 0,-0.143933 0.135467,-0.254 0.1016,-0.0762 0.211666,-0.0762 0.143934,0 0.245534,0.118534 0.2032,0.237066 0.5334,0.364066 0.338667,0.127001 0.745067,0.127001 0.592667,0 0.889,-0.203201 0.296334,-0.2032 0.3048,-0.5334 0,-0.3048 -0.296333,-0.508 -0.296334,-0.2032 -0.9398,-0.3048 -0.829734,-0.135467 -1.244601,-0.465667 -0.4064,-0.338667 -0.4064,-0.8128 0,-0.618067 0.474133,-0.956734 0.482601,-0.338667 1.202268,-0.338667 0.5588,0 0.973667,0.194734 0.414866,0.186266 0.668867,0.524933 0.06773,0.110067 0.06773,0.194734 0,0.143933 -0.135467,0.2286 -0.05927,0.04233 -0.160867,0.04233 -0.1778,0 -0.296333,-0.127 -0.414867,-0.474134 -1.134534,-0.474134 -0.465667,0 -0.745067,0.194734 -0.2794,0.186267 -0.2794,0.474133 0,0.304801 0.262467,0.491067 0.262467,0.1778 0.931334,0.287867 0.905933,0.1524 1.2954,0.499534 0.389467,0.338666 0.389467,0.846667 0,0.389466 -0.237067,0.694267 -0.2286,0.3048 -0.643467,0.474133 -0.414867,0.169333 -0.9398,0.169333 z"
       style="font-style:normal;font-variant:normal;font-weight:normal;font-stretch:normal;font-size:8.46667px;line-height:1.25;font-family:Comfortaa;-inkscape-font-specification:Comfortaa;letter-spacing:0px;word-spacing:0px;stroke-width:0.264583;fill:#ffffff"
       id="path1457" />
    <path
       d="m -83.02542,72.771848 q -0.524934,0 -1.007534,-0.1778 -0.4826,-0.1778 -0.778933,-0.499533 -0.08467,-0.1016 -0.08467,-0.194734 0,-0.143933 0.135467,-0.254 0.1016,-0.0762 0.211666,-0.0762 0.143934,0 0.245534,0.118534 0.2032,0.237066 0.5334,0.364066 0.338667,0.127001 0.745067,0.127001 0.592667,0 0.889,-0.203201 0.296334,-0.2032 0.3048,-0.5334 0,-0.3048 -0.296333,-0.508 -0.296334,-0.2032 -0.9398,-0.3048 -0.829734,-0.135467 -1.244601,-0.465667 -0.4064,-0.338667 -0.4064,-0.8128 0,-0.618067 0.474133,-0.956734 0.482601,-0.338667 1.202268,-0.338667 0.5588,0 0.973667,0.194734 0.414866,0.186266 0.668867,0.524933 0.06773,0.110067 0.06773,0.194734 0,0.143933 -0.135467,0.2286 -0.05927,0.04233 -0.160867,0.04233 -0.1778,0 -0.296333,-0.127 -0.414867,-0.474134 -1.134534,-0.474134 -0.465667,0 -0.745067,0.194734 -0.2794,0.186267 -0.2794,0.474133 0,0.304801 0.262467,0.491067 0.262467,0.1778 0.931334,0.287867 0.905933,0.1524 1.2954,0.499534 0.389467,0.338666 0.389467,0.846667 0,0.389466 -0.237067,0.694267 -0.2286,0.3048 -0.643467,0.474133 -0.414867,0.169333 -0.9398,0.169333 z"
       style="font-style:normal;font-variant:normal;font-weight:normal;font-stretch:normal;font-size:8.46667px;line-height:1.25;font-family:Comfortaa;-inkscape-font-specification:Comfortaa;letter-spacing:0px;word-spacing:0px;stroke-width:0.264583;fill:#ffffff"
       id="path1459" />
    <path
       d="m -77.987221,68.047447 q 0.355601,0 0.558801,0.09313 0.211666,0.09313 0.211666,0.262467 0,0.0508 -0.0085,0.0762 -0.03387,0.118533 -0.110067,0.160866 -0.06773,0.04233 -0.194733,0.04233 -0.0762,0 -0.262467,-0.01693 -0.06773,-0.0085 -0.2032,-0.0085 -0.635001,0 -1.041401,0.338667 -0.397933,0.338666 -0.397933,0.880533 v 2.531535 q 0,0.1524 -0.08467,0.237066 -0.08467,0.08467 -0.237067,0.08467 -0.1524,0 -0.237066,-0.08467 -0.08467,-0.08467 -0.08467,-0.237066 V 68.41998 q 0,-0.1524 0.08467,-0.237067 0.08467,-0.08467 0.237066,-0.08467 0.1524,0 0.237067,0.08467 0.08467,0.08467 0.08467,0.237067 v 0.372534 q 0.245533,-0.355601 0.626533,-0.550334 0.381001,-0.194733 0.821267,-0.194733 z"
       style="font-style:normal;font-variant:normal;font-weight:normal;font-stretch:normal;font-size:8.46667px;line-height:1.25;font-family:Comfortaa;-inkscape-font-specification:Comfortaa;letter-spacing:0px;word-spacing:0px;stroke-width:0.264583;fill:#ffffff"
       id="path1461" />
    <path
       style="font-size:8.46667px;line-height:1.25;font-family:Monofur;-inkscape-font-specification:Monofur;letter-spacing:0px;word-spacing:0px;fill:#dc2626;stroke:none;stroke-width:1;stroke-linecap:round;stroke-dasharray:0.79375, 0.79375"
       id="path1473"
       d="m -92.920433,67.03354 -0.79375,-0.458271 0,-0.916544 0.79375,-0.458272 0.79375,0.458272 0,0.916544 z" />
    <path
       style="font-size:8.46667px;line-height:1.25;font-family:Monofur;-inkscape-font-specification:Monofur;letter-spacing:0px;word-spacing:0px;fill:#dc2626;stroke:none;stroke-width:1.33173;stroke-linecap:round;stroke-dasharray:1.05706, 1.05706"
       id="path1481"
       transform="matrix(0.2934012,0.69120991,-0.69120991,0.2934012,-12.273438,113.62988)"
       d="m -89.913171,74.324203 -1.5875,0.916544 V 73.40766 Z" />
    <path
       style="font-size:8.46667px;line-height:1.25;font-family:Monofur;-inkscape-font-specification:Monofur;letter-spacing:0px;word-spacing:0px;fill:#dc2626;stroke:none;stroke-width:1.33173;stroke-linecap:round;stroke-dasharray:1.05706, 1.05706"
       id="path1483"
       transform="matrix(-0.2934012,0.69120991,0.69120991,0.2934012,-173.57456,113.62988)"
       d="m -89.913171,74.324203 -1.5875,0.916544 V 73.40766 Z" />
  </g>
</svg>
